<?xml version="1.0" standalone="no"?>
<svg xmlns="http://www.w3.org/2000/svg" height="1920pt" preserveAspectRatio="xMidYMid meet" viewBox="0 0 1362 1920" width="1362pt">
  <path d="m6763 19058c-33-62-103-189-153-283-499-917-1109-1886-1809-2870-332-467-825-1128-1431-1920-1212-1582-1725-2322-2188-3155-107-194-317-616-407-820-496-1123-735-2244-735-3455 0-619 63-1094 220-1665 594-2157 2344-3894 4590-4553 1083-318 2245-369 3353-146 2005 402 3705 1657 4654 3434 140 262 299 617 287 637-4 6-3 8 3 5 12-7 56 111 46 126-3 6-1 7 5 3 12-7 17 10 14 47-1 10 3 15 8 12 9-6 14 10 13 42-1 7 4 10 10 6s8 2 5 15c-4 14-2 20 5 15 6-4 8 2 5 15-4 14-2 20 5 15 6-4 8 2 5 15-4 14-2 20 5 15 6-4 8 2 5 15-4 14-2 20 5 15 6-4 8 2 5 15-4 14-2 20 5 15 6-4 8 2 5 15-4 12-3 20 1 17 12-7 32 70 24 91-4 11-2 15 4 11 14-8 34 62 27 93-4 17-3 21 4 12 16-23 126 420 117 472-3 17-1 47 5 66 8 31 9 29 4-15-14-123 16 6 52 225 17 107 16 159-2 65-15-82-13-55 16 195 10 91 23 224 27 295 12 201 9 773-5 915-13 120-38 327-47 380-159 938-491 1848-1065 2915-504 937-1060 1801-2405 3735-664 955-991 1432-1421 2070-532 791-1182 1810-1168 1832 4 6 3 8-4 5-13-9-65 79-56 95 4 6 3 8-3 5-12-8-277 418-277 445 0 9-3 15-7 12-11-7-61 85-53 98 4 6 3 8-4 5-13-9-75 100-66 115 4 6 3 8-3 5-14-9-156 231-149 250 3 8 2 11-4 8-13-8-31 30-24 49 3 9 10 13 16 10 5-3 7-13 3-22-3-9-3-13 1-9 10 10 75-104 67-117-4-6-3-8 2-4 4 4 55-73 113-170 172-289 254-422 259-422 2 0-6 17-19 38-12 20-102 172-200 337-97 165-190 321-205 348l-28 47zm6751-13487c-4-28-9-50-11-47-3 3-2 28 2 56s9 49 12 47c2-3 1-28-3-56zm-17-93c-3-7-5-2-5 12s2 19 5 13c2-7 2-19 0-25zm-33-172c-3-21-8-35-11-32-2 2-1 20 3 40 3 21 8 35 11 32 2-2 1-20-3-40zm-17-68c-3-8-6-5-6 6-1 11 2 17 5 13 3-3 4-12 1-19zm-10-50c-3-7-5-2-5 12s2 19 5 13c2-7 2-19 0-25zm-10-40c-3-8-6-5-6 6-1 11 2 17 5 13 3-3 4-12 1-19zm-10-40c-3-8-6-5-6 6-1 11 2 17 5 13 3-3 4-12 1-19zm-10-40c-3-8-6-5-6 6-1 11 2 17 5 13 3-3 4-12 1-19zm-10-40c-3-8-6-5-6 6-1 11 2 17 5 13 3-3 4-12 1-19zm-10-40c-3-8-6-5-6 6-1 11 2 17 5 13 3-3 4-12 1-19zm-6097 13382c6-11 13-20 16-20 2 0 0 9-6 20s-13 20-16 20c-2 0 0-9 6-20zm110-180c6-11 13-20 16-20 2 0 0 9-6 20s-13 20-16 20c-2 0 0-9 6-20zm135-219c8-17 19-33 25-36 5-3 1 10-11 29-25 43-36 48-14 7zm54-86c26-49 123-200 135-212 12-11 5 1-72 127-70 112-98 150-63 85zm153-247c8-13 63-99 123-193 59-93 114-177 122-185 13-13-54 95-199 323-28 42-52 77-55 77s1-10 9-22zm358-562c0-2 8-10 18-17 15-13 16-12 3 4s-21 21-21 13zm170-255c5-11 15-23 21-27 6-3 3 5-6 20-20 30-30 35-15 7zm40-61c6-11 13-20 16-20 2 0 0 9-6 20s-13 20-16 20c-2 0 0-9 6-20zm110-169c5-11 15-23 21-27 6-3 3 5-6 20-20 30-30 35-15 7zm430-640c5-11 15-23 21-27 6-3 3 5-6 20-20 30-30 35-15 7zm100-150c5-11 15-23 21-27 6-3 3 5-6 20-20 30-30 35-15 7zm45-65c10-14 19-26 22-26 7 0-17 39-28 46-6 3-3-5 6-20zm25-40c0-2 8-10 18-17 15-13 16-12 3 4s-21 21-21 13zm40-55c5-11 15-23 21-27 6-3 3 5-6 20-20 30-30 35-15 7zm65-95c10-14 19-26 22-26 7 0-17 39-28 46-6 3-3-5 6-20zm45-66c12-16 24-30 26-30 3 0-4 14-16 30-12 17-24 30-26 30-3 0 4-13 16-30zm45-67c18-30 73-98 58-73-16 29-66 100-70 100-2 0 3-12 12-27zm65-97c0-2 8-10 18-17 15-13 16-12 3 4s-21 21-21 13zm90-130c0-2 8-10 18-17 15-13 16-12 3 4s-21 21-21 13zm110-160c0-2 8-10 18-17 15-13 16-12 3 4s-21 21-21 13zm180-260c0-2 8-10 18-17 15-13 16-12 3 4s-21 21-21 13zm140-200c0-2 8-10 18-17 15-13 16-12 3 4s-21 21-21 13zm200-290c0-2 8-10 18-17 15-13 16-12 3 4s-21 21-21 13zm50-70c0-2 8-10 18-17 15-13 16-12 3 4s-21 21-21 13zm110-160c0-2 8-10 18-17 15-13 16-12 3 4s-21 21-21 13zm90-130c0-2 8-10 18-17 15-13 16-12 3 4s-21 21-21 13zm56-79c3-10 9-15 12-12s0 11-7 18c-10 9-11 8-5-6zm124-181c0-2 8-10 18-17 15-13 16-12 3 4s-21 21-21 13zm65-90c10-14 19-26 22-26 7 0-17 39-28 46-6 3-3-5 6-20zm645-950c0-2 8-10 18-17 15-13 16-12 3 4s-21 21-21 13zm60-85c5-11 15-23 21-27 6-3 3 5-6 20-20 30-30 35-15 7zm80-121c6-11 13-20 16-20 2 0 0 9-6 20s-13 20-16 20c-2 0 0-9 6-20zm45-67c15-24 30-43 32-43 7 0-31 61-46 73-8 7-2-7 14-30zm50-77c10-14 19-26 22-26 7 0-17 39-28 46-6 3-3-5 6-20zm75-115c5-11 15-23 21-27 6-3 3 5-6 20-20 30-30 35-15 7zm40-65c0-2 8-10 18-17 15-13 16-12 3 4s-21 21-21 13zm50-75c5-11 15-23 21-27 6-3 3 5-6 20-20 30-30 35-15 7zm40-60c5-11 15-23 21-27 6-3 3 5-6 20-20 30-30 35-15 7zm120-186c0-5 10-21 21-35 13-17 17-18 10-5-17 33-31 51-31 40zm120-195c6-11 13-20 16-20 2 0 0 9-6 20s-13 20-16 20c-2 0 0-9 6-20zm455-760c9-16 18-30 21-30 2 0-2 14-11 30-9 17-18 30-21 30-2 0 2-13 11-30zm55-99c0-6 4-13 10-16s7 1 4 9c-7 18-14 21-14 7zm40-71c6-11 13-20 16-20 2 0 0 9-6 20s-13 20-16 20c-2 0 0-9 6-20zm40-70c6-11 13-20 16-20 2 0 0 9-6 20s-13 20-16 20c-2 0 0-9 6-20zm70-130c6-11 13-20 16-20 2 0 0 9-6 20s-13 20-16 20c-2 0 0-9 6-20zm40-79c0-6 4-13 10-16s7 1 4 9c-7 18-14 21-14 7zm45-81c9-16 18-30 21-30 2 0-2 14-11 30-9 17-18 30-21 30-2 0 2-13 11-30zm25-44c0-11 40-86 45-86 3 0-4 19-16 43-23 45-29 54-29 43zm100-205c0-6 4-13 10-16s7 1 4 9c-7 18-14 21-14 7zm50-100c0-6 4-13 10-16s7 1 4 9c-7 18-14 21-14 7zm21-36c0-5 11-30 24-55s24-40 24-35c0 6-11 30-24 55s-24 41-24 35zm49-114c0-6 4-13 10-16s7 1 4 9c-7 18-14 21-14 7zm20-32c0-10 40-99 46-99 2 0-2 16-10 35-17 40-35 73-36 64zm54-119c2-8 33-82 69-165 36-82 90-211 121-285 30-74 55-130 56-124 0 15-170 424-215 517-19 40-33 65-31 57zm261-635c4-17 11-34 16-39s4 5-1 24c-12 42-24 55-15 15zm26-59c-1-14 41-127 46-123 2 3-7 33-21 68s-25 60-25 55zm130-392c0-11 3-14 6-6 3 7 2 16-1 19-3 4-6-2-5-13zm20-60c0-11 3-14 6-6 3 7 2 16-1 19-3 4-6-2-5-13zm50-174c0-8 4-24 9-35 5-13 9-14 9-5 0 8-4 24-9 35-5 13-9 14-9 5zm30-110c0-8 4-24 9-35 5-13 9-14 9-5 0 8-4 24-9 35-5 13-9 14-9 5zm20-76c0-11 3-14 6-6 3 7 2 16-1 19-3 4-6-2-5-13zm11-44c0-8 4-26 8-40 6-20 8-21 8-5 0 11-3 29-8 40-5 12-8 14-8 5zm19-86c0-11 3-14 6-6 3 7 2 16-1 19-3 4-6-2-5-13zm10-40c0-11 3-14 6-6 3 7 2 16-1 19-3 4-6-2-5-13zm11-44c0-14 4-36 8-50 6-20 8-21 8-5 0 11-4 34-8 50-7 27-8 27-8 5zm20-105c0-16 2-22 5-12 2 9 2 23 0 30-3 6-5-1-5-18zm8-40c0-4 9-60 20-124 42-250 72-550 84-841 2-47 2 3 0 110-4 235-28 474-79 765-14 77-25 118-25 90zm97-1382c-4-115-14-271-22-348s-17-167-19-200l-5-60 9 50c27 152 66 765 48 765-3 0-8-93-11-207z" transform="matrix(.1 0 0 -.1 0 1920)" fill="#F44545" stroke="none" stroke-width="2" vector-effect="non-scaling-stroke"/>
</svg>
